# xmcd
#
# Track frame offsets: 
#        150
#        10356
#        17521
#        27263
#        40187
#        52067
#        64707
#        77492
#        87122
#        97162
#        109617
#        122438
#
# Disc length: 1785 seconds
#
# Revision: 0
# Processed by: cddbd v1.5.1PL0 Copyright (c) Steve Scherf et al.
# Submitted via: ExactAudioCopy v0.90b4
#
DISCID=8b06f70c
DTITLE=Carl Perkins - Blue Suede Shoes - Pink Pedal Pushers - Matchbox
DTITLE=Various Artist - Bobbin' The Blues - That's Right
DYEAR=2001
DGENRE=
TTITLE0=Blue Suede Shoes
TTITLE1=Pink Pedal Pushers (Alt)
TTITLE2=Matchbox
TTITLE3=Roll Over Beethoven
TTITLE4=Gone, Gone, Gone
TTITLE5=Honey Don't
TTITLE6=Boppin' The Blues
TTITLE7=All Mama's Children
TTITLE8=Everybody's Tryin' To Be My Baby
TTITLE9=Your True Love
TTITLE10=That's Right
TTITLE11=You Can't Make Love To Somebody
EXTD=
EXTT0=
EXTT1=
EXTT2=
EXTT3=
EXTT4=
EXTT5=
EXTT6=
EXTT7=
EXTT8=
EXTT9=
EXTT10=
EXTT11=
PLAYORDER=
